<svg width="500" height="500" viewBox="0 0 500 500" fill="none" xmlns="http://www.w3.org/2000/svg">
<g clip-path="url(#clip0_8_9)">
<rect width="500" height="500" rx="77" fill="#45CD55"/>
<path d="M274.485 222C279.732 222.408 284.934 223.282 290.03 224.613C331.744 231.525 387.462 253.763 412.846 289.633C425.939 308.136 431.625 330.457 427.856 352.971C422.615 384.277 401.304 408.716 376.339 426.587C321.019 466.187 235.215 473.533 169.65 462.122C145.362 457.895 103.784 447.205 83 435.062C89.7974 435.895 96.3649 437.22 103.114 438.23C111.8 439.483 120.531 440.39 129.287 440.949C142.25 441.673 155.24 441.722 168.207 441.096C207.151 439.556 244.447 433.257 279.705 416.39C301.494 405.967 331.231 388.485 334.035 361.919C338.288 321.635 280.6 307.18 252.641 302.838C239.936 300.928 231.836 300.361 219.196 300.648C225.312 290.45 236.329 275.828 243.409 265.711L262.447 238.734C266.219 233.394 270.46 227.054 274.485 222Z" fill="white"/>
<path d="M235.844 62.1707C248.208 61.57 259.789 62.6324 272 64.1417C267.987 68.2559 263.738 72.3658 260.447 77.0997C252.671 88.2884 248.946 100.626 245.957 113.745C245.471 113.689 244.985 113.64 244.498 113.599C214.572 110.997 183.538 121.186 160.179 140.559C142.972 154.829 130.961 180.012 147.604 199.84C160.233 214.887 184.844 217.312 203.45 218.654C200.939 222.089 190.081 232.637 186.664 236.013L150.451 271.575C145.725 276.143 140.771 281.777 135.988 286C95.5863 275.981 66.0124 246.031 64.1025 203.364C62.6935 171.891 75.9306 143.323 96.6533 120.478C130.809 82.8244 186.476 64.3575 235.844 62.1707Z" fill="white"/>
<path d="M344.889 33.0314C347.537 32.8325 349.265 33.5571 350.873 35.8623C358.704 47.2634 361.914 63.393 360.778 77.0747C358.366 106.134 338.887 125.275 320.54 145.643C309.915 157.407 299.608 169.456 289.631 181.774C285.736 186.496 281.631 191.131 277.847 195.935C275.542 198.862 277.203 200.044 274.672 203.655C264.905 217.584 254.573 232.171 244.781 245.987C240.844 251.541 225.948 274.741 222.476 277.645C219.865 278.548 216.707 277.589 214.367 276.339C204.76 271.204 192.597 261.695 189 251.294C191.198 247.718 202.89 237.661 206.624 234.254C213.579 227.996 220.382 221.572 227.027 214.988C234.956 207.17 243.004 199.244 251.398 191.935C257.066 187 263.821 182.726 269.126 177.569C286.212 160.96 304.988 136.284 310.155 112.595C306.492 118.354 303.812 125.715 299.977 131.769C289.071 148.982 273.602 167.727 258.815 181.458C260.825 172.472 260.645 160.997 259.997 151.904C258.338 128.633 258.041 111.808 268.426 90.7157C280.023 67.1594 297.239 56.5251 320.069 44.7593C328.584 40.3709 335.57 36.1919 344.889 33.0314Z" fill="white"/>
<path d="M393.224 78.2145C402.366 77.3462 425.636 79.0982 433.209 83.7584C434.09 84.3006 434.818 84.9034 434.984 85.9822C435.716 90.7452 410.792 134.425 406.721 141.086C403.305 146.721 399.61 152.18 395.651 157.445C376.449 182.601 357.475 193.384 325.641 195.387C317.121 195.923 308.658 195.433 300.147 195.837C294.184 196.12 287.96 197.202 282 198C291.054 188.23 307.641 181.148 319.796 173.045C331.311 165.221 344.244 153.512 353.122 142.782C349.213 145.071 344.714 149.051 341.283 152.057C329.576 162.315 317.367 171.609 304.203 179.911C299.487 182.886 294.93 186.371 289.924 188.933C292.607 184.578 301.024 175.649 304.847 171.337C311.85 163.379 318.96 155.516 326.176 147.752C343.671 128.705 359.678 111.213 364.449 84.588C371.301 81.898 385.855 79.0201 393.224 78.2145Z" fill="white"/>
<path d="M124.715 318C126.255 318.334 132.069 326.177 133.508 327.907C140.6 336.545 149.996 342.697 159.76 347.869C160.825 348.433 165.655 351.131 164.925 352.676C155.107 373.453 134.806 390.349 110.606 386.655C107.482 389.686 103.411 394.37 100.292 397.634C95.2452 402.823 90.1162 407.931 84.9076 412.957C81.8131 415.951 67.6163 430.238 65.0027 431C64.6657 428.056 96.1108 382.927 99.9368 378.013C97.7591 368.889 96.9987 363.57 98.7072 354.09C100.978 341.49 113.923 324.877 124.715 318Z" fill="url(#paint0_linear_8_9)"/>
<path d="M155.063 286C156.62 286.446 162.665 293.646 164.469 295.487C169.436 300.597 175.026 305.026 181.099 308.665C192.494 315.344 197.922 313.62 187.257 328.67C183.794 333.557 177.007 345.961 170.779 346C160.389 344.19 130.424 323.882 132.065 309.537C132.715 303.854 149.663 289.967 155.063 286Z" fill="white"/>
<path d="M183.814 258C186.443 260.346 189.642 264.023 192.345 266.593C197.93 271.901 203.317 275.872 209.881 279.907C211.194 280.78 213.827 282.334 214 283.896C214.015 289.669 208.292 295.902 205.464 300.724C204.043 303.148 200.191 308.267 197.691 308.838C193.924 309.697 187.955 306.963 184.991 304.792C179.538 302.72 158.073 284.721 161.336 278.947C164.272 273.753 178.371 260.639 183.814 258Z" fill="white"/>
</g>
<defs>
<linearGradient id="paint0_linear_8_9" x1="123.253" y1="399.36" x2="82.879" y2="360.536" gradientUnits="userSpaceOnUse">
<stop stop-color="white"/>
</linearGradient>
<clipPath id="clip0_8_9">
<rect width="500" height="500" rx="77" fill="white"/>
</clipPath>
</defs>
</svg>
