<svg width="1998" height="434" viewBox="0 0 1998 434" fill="none" xmlns="http://www.w3.org/2000/svg">
<path d="M210.485 189C215.732 189.408 220.934 190.282 226.03 191.613C267.744 198.525 323.462 220.763 348.846 256.633C361.939 275.136 367.625 297.457 363.856 319.971C358.615 351.277 337.304 375.716 312.339 393.587C257.019 433.187 171.215 440.533 105.65 429.122C81.3619 424.895 39.7836 414.205 19 402.062C25.7974 402.895 32.3649 404.22 39.114 405.23C47.7998 406.483 56.531 407.39 65.2874 407.949C78.2497 408.673 91.24 408.722 104.207 408.096C143.151 406.556 180.447 400.257 215.705 383.39C237.494 372.967 267.231 355.485 270.035 328.919C274.288 288.635 216.6 274.18 188.641 269.838C175.936 267.928 167.836 267.361 155.196 267.648C161.312 257.45 172.329 242.828 179.409 232.711L198.447 205.734C202.219 200.394 206.46 194.054 210.485 189Z" fill="#45CD55"/>
<path d="M171.844 29.1707C184.208 28.57 195.789 29.6324 208 31.1417C203.987 35.2559 199.738 39.3658 196.447 44.0997C188.671 55.2884 184.946 67.6259 181.957 80.7455C181.471 80.6893 180.985 80.6401 180.498 80.5993C150.572 77.9973 119.538 88.1861 96.1794 107.559C78.9724 121.829 66.9606 147.012 83.6038 166.84C96.2331 181.887 120.844 184.312 139.45 185.654C136.939 189.089 126.081 199.637 122.664 203.013L86.451 238.575C81.7253 243.143 76.7714 248.777 71.9885 253C31.5863 242.981 2.01242 213.031 0.102462 170.364C-1.30645 138.891 11.9306 110.323 32.6533 87.4778C66.8092 49.8244 122.476 31.3575 171.844 29.1707Z" fill="#45CD55"/>
<path d="M280.889 0.0313507C283.537 -0.167546 285.265 0.557068 286.873 2.8623C294.704 14.2634 297.914 30.393 296.778 44.0747C294.366 73.1341 274.887 92.2753 256.54 112.643C245.915 124.407 235.608 136.456 225.631 148.774C221.736 153.496 217.631 158.131 213.847 162.935C211.542 165.862 213.203 167.044 210.672 170.655C200.905 184.584 190.573 199.171 180.781 212.987C176.844 218.541 161.948 241.741 158.476 244.645C155.865 245.548 152.707 244.589 150.367 243.339C140.76 238.204 128.597 228.695 125 218.294C127.198 214.718 138.89 204.661 142.624 201.254C149.579 194.996 156.382 188.572 163.027 181.988C170.956 174.169 179.004 166.244 187.398 158.935C193.066 154 199.821 149.726 205.126 144.569C222.212 127.96 240.988 103.284 246.155 79.595C242.492 85.3539 239.812 92.7152 235.977 98.7686C225.071 115.982 209.602 134.727 194.815 148.458C196.825 139.472 196.645 127.997 195.997 118.904C194.338 95.6326 194.041 78.8079 204.426 57.7157C216.023 34.1594 233.239 23.5251 256.069 11.7592C264.584 7.37087 271.57 3.19191 280.889 0.0313507Z" fill="#45CD55"/>
<path d="M329.224 45.2145C338.366 44.3462 361.636 46.0982 369.209 50.7584C370.09 51.3006 370.818 51.9034 370.984 52.9822C371.716 57.7452 346.792 101.425 342.721 108.086C339.305 113.721 335.61 119.18 331.651 124.445C312.449 149.601 293.475 160.384 261.641 162.387C253.121 162.923 244.658 162.433 236.147 162.837C230.184 163.12 223.96 164.202 218 165C227.054 155.23 243.641 148.148 255.796 140.045C267.311 132.221 280.244 120.512 289.122 109.782C285.213 112.071 280.714 116.051 277.283 119.057C265.576 129.315 253.367 138.609 240.203 146.911C235.487 149.886 230.93 153.371 225.924 155.933C228.607 151.578 237.024 142.649 240.847 138.337C247.85 130.379 254.96 122.516 262.176 114.752C279.671 95.7051 295.678 78.2135 300.449 51.588C307.301 48.898 321.855 46.0201 329.224 45.2145Z" fill="#45CD55"/>
<path d="M60.7147 285C62.2551 285.334 68.0691 293.177 69.5084 294.907C76.5999 303.545 85.9963 309.697 95.7602 314.869C96.8252 315.433 101.655 318.131 100.925 319.676C91.1067 340.453 70.8059 357.349 46.6058 353.655C43.4822 356.686 39.4113 361.37 36.2918 364.634C31.2452 369.823 26.1162 374.931 20.9076 379.957C17.8131 382.951 3.61631 397.238 1.00269 398C0.665693 395.056 32.1108 349.927 35.9368 345.013C33.7591 335.889 32.9987 330.57 34.7072 321.09C36.9783 308.49 49.9225 291.877 60.7147 285Z" fill="#45CD55"/>
<path d="M91.0633 253C92.6197 253.446 98.6647 260.646 100.469 262.487C105.436 267.597 111.026 272.026 117.099 275.665C128.494 282.344 133.922 280.62 123.257 295.67C119.794 300.557 113.007 312.961 106.779 313C96.3895 311.19 66.4242 290.882 68.0648 276.537C68.7149 270.854 85.6635 256.967 91.0633 253Z" fill="#45CD55"/>
<path d="M119.814 225C122.443 227.346 125.642 231.023 128.345 233.593C133.93 238.901 139.317 242.872 145.881 246.907C147.194 247.78 149.827 249.334 150 250.896C150.015 256.669 144.292 262.902 141.464 267.724C140.043 270.148 136.191 275.267 133.691 275.838C129.924 276.697 123.955 273.963 120.991 271.792C115.538 269.72 94.0726 251.721 97.3357 245.947C100.272 240.753 114.371 227.639 119.814 225Z" fill="#45CD55"/>
<path d="M562.486 355.672C537.994 355.672 520.46 351.386 509.884 342.813C499.308 334.13 493.574 319.713 492.684 299.562C491.793 287.984 492.071 276.128 493.519 263.993H530.925C530.257 271.675 529.867 279.189 529.756 286.537C529.756 293.885 530.146 300.731 530.925 307.077C531.481 312.198 534.153 316.15 538.94 318.934C543.839 321.605 551.632 322.941 562.319 322.941C572.896 322.941 580.466 321.605 585.03 318.934C589.706 316.15 592.378 312.198 593.046 307.077C593.825 301.288 594.159 295.833 594.048 290.712C593.937 285.479 593.603 279.969 593.046 274.18C592.489 269.393 590.708 265.162 587.702 261.488C584.696 257.814 578.74 255.365 569.834 254.141L542.113 248.296C528.977 245.735 518.846 242.062 511.721 237.274C504.707 232.487 499.753 226.476 496.858 219.239C493.964 212.003 492.294 203.486 491.849 193.689C491.626 189.014 491.515 184.561 491.515 180.33C491.626 176.1 491.793 171.869 492.016 167.639C492.684 147.711 498.306 133.405 508.882 124.722C519.458 116.038 537.271 111.696 562.319 111.696C585.921 111.696 603.01 116.038 613.586 124.722C624.162 133.405 629.84 147.711 630.619 167.639C630.953 172.092 631.009 177.603 630.786 184.171C630.675 190.628 630.452 196.807 630.118 202.707H592.378C593.38 188.123 593.491 173.929 592.712 160.124C591.821 149.659 581.635 144.427 562.152 144.427C551.576 144.427 543.95 145.763 539.274 148.435C534.599 151.106 531.927 155.003 531.259 160.124C530.479 165.69 530.09 171.312 530.09 176.99C530.201 182.557 530.591 188.123 531.259 193.689C531.815 198.588 533.597 202.818 536.603 206.381C539.608 209.832 545.843 212.17 555.306 213.395L580.855 218.237C594.438 220.687 604.847 224.416 612.083 229.426C619.319 234.436 624.385 240.67 627.279 248.129C630.285 255.477 632.011 264.16 632.456 274.18C632.79 278.633 632.901 282.919 632.79 287.038C632.679 291.157 632.456 295.332 632.122 299.562C631.231 319.713 625.442 334.13 614.755 342.813C604.179 351.386 586.756 355.672 562.486 355.672ZM570.836 102.345H552.3L535.935 62.4336H557.143L561.651 82.6396L565.993 62.4336H587.201L570.836 102.345ZM712.846 353H673.77V114.535H712.846V353ZM797.244 353H758.168V114.535H822.794C846.952 114.535 864.43 118.766 875.229 127.227C886.028 135.688 891.929 149.659 892.93 169.142C893.71 178.382 894.099 186.898 894.099 194.691C894.099 202.373 893.71 210.667 892.93 219.573C891.929 238.944 885.972 252.86 875.062 261.321C864.263 269.782 846.674 274.013 822.293 274.013H797.244V353ZM797.244 149.938V238.61H822.293C833.092 238.61 840.885 237.163 845.672 234.269C850.57 231.374 853.242 227.199 853.687 221.744C854.467 213.506 854.856 204.377 854.856 194.357C854.856 184.227 854.467 175.098 853.687 166.971C853.242 161.404 850.626 157.174 845.839 154.279C841.052 151.385 833.37 149.938 822.794 149.938H797.244ZM969.313 353H929.235V114.535H970.816L970.315 172.147L963.802 226.754H971.818L992.692 171.146L1016.07 114.535H1058.99L1012.56 214.062L1062.49 353H1022.42L986.68 258.816L969.313 294.052V353ZM1163.76 355.672C1139.15 355.672 1121.45 351.386 1110.65 342.813C1099.86 334.13 1094.18 319.769 1093.62 299.729C1092.84 278.577 1092.45 256.59 1092.45 233.768C1092.45 210.834 1092.84 188.791 1093.62 167.639C1094.18 147.711 1099.86 133.405 1110.65 124.722C1121.45 116.038 1139.15 111.696 1163.76 111.696C1188.47 111.696 1206.17 116.038 1216.86 124.722C1227.66 133.405 1233.34 147.711 1233.9 167.639C1234.67 189.014 1235.06 211.112 1235.06 233.935C1235.06 256.646 1234.67 278.577 1233.9 299.729C1233.34 319.769 1227.66 334.13 1216.86 342.813C1206.17 351.386 1188.47 355.672 1163.76 355.672ZM1163.76 322.941C1174.67 322.941 1182.52 321.605 1187.3 318.934C1192.09 316.262 1194.6 312.365 1194.82 307.244C1195.71 292.549 1196.27 276.629 1196.49 259.484C1196.71 242.229 1196.66 224.973 1196.32 207.717C1196.1 190.461 1195.6 174.597 1194.82 160.124C1194.6 154.892 1192.04 150.995 1187.14 148.435C1182.24 145.763 1174.45 144.427 1163.76 144.427C1153.18 144.427 1145.44 145.763 1140.55 148.435C1135.65 150.995 1133.03 154.892 1132.7 160.124C1131.81 174.597 1131.25 190.461 1131.03 207.717C1130.81 224.973 1130.86 242.229 1131.19 259.484C1131.53 276.629 1132.03 292.549 1132.7 307.244C1133.03 312.365 1135.65 316.262 1140.55 318.934C1145.44 321.605 1153.18 322.941 1163.76 322.941ZM1372.57 353H1304.77L1265.36 114.535H1306.27L1326.14 236.439L1332.82 317.598H1344.18L1350.86 236.439L1371.06 114.535H1411.81L1372.57 353ZM1487.36 353H1448.28V114.535H1487.36V353ZM1599.31 355.672C1574.82 355.672 1557.28 351.386 1546.7 342.813C1536.13 334.13 1530.4 319.713 1529.5 299.562C1528.61 287.984 1528.89 276.128 1530.34 263.993H1567.75C1567.08 271.675 1566.69 279.189 1566.58 286.537C1566.58 293.885 1566.97 300.731 1567.75 307.077C1568.3 312.198 1570.97 316.15 1575.76 318.934C1580.66 321.605 1588.45 322.941 1599.14 322.941C1609.72 322.941 1617.29 321.605 1621.85 318.934C1626.53 316.15 1629.2 312.198 1629.87 307.077C1630.65 301.288 1630.98 295.833 1630.87 290.712C1630.76 285.479 1630.42 279.969 1629.87 274.18C1629.31 269.393 1627.53 265.162 1624.52 261.488C1621.52 257.814 1615.56 255.365 1606.66 254.141L1578.93 248.296C1565.8 245.735 1555.67 242.062 1548.54 237.274C1541.53 232.487 1536.57 226.476 1533.68 219.239C1530.78 212.003 1529.11 203.486 1528.67 193.689C1528.45 189.014 1528.34 184.561 1528.34 180.33C1528.45 176.1 1528.61 171.869 1528.84 167.639C1529.5 147.711 1535.13 133.405 1545.7 124.722C1556.28 116.038 1574.09 111.696 1599.14 111.696C1622.74 111.696 1639.83 116.038 1650.41 124.722C1660.98 133.405 1666.66 147.711 1667.44 167.639C1667.77 172.092 1667.83 177.603 1667.61 184.171C1667.5 190.628 1667.27 196.807 1666.94 202.707H1629.2C1630.2 188.123 1630.31 173.929 1629.53 160.124C1628.64 149.659 1618.46 144.427 1598.97 144.427C1588.4 144.427 1580.77 145.763 1576.1 148.435C1571.42 151.106 1568.75 155.003 1568.08 160.124C1567.3 165.69 1566.91 171.312 1566.91 176.99C1567.02 182.557 1567.41 188.123 1568.08 193.689C1568.64 198.588 1570.42 202.818 1573.42 206.381C1576.43 209.832 1582.66 212.17 1592.13 213.395L1617.68 218.237C1631.26 220.687 1641.67 224.416 1648.9 229.426C1656.14 234.436 1661.21 240.67 1664.1 248.129C1667.11 255.477 1668.83 264.16 1669.28 274.18C1669.61 278.633 1669.72 282.919 1669.61 287.038C1669.5 291.157 1669.28 295.332 1668.94 299.562C1668.05 319.713 1662.26 334.13 1651.58 342.813C1641 351.386 1623.58 355.672 1599.31 355.672ZM1607.66 102.345H1589.12L1572.76 62.4336H1593.96L1598.47 82.6396L1602.81 62.4336H1624.02L1607.66 102.345ZM1780.56 353H1741.48V149.938H1696.06V114.535H1825.82V149.938H1780.56V353ZM1973.5 353H1856.78V114.535H1973.5V149.938H1895.85V214.229H1968.99V249.632H1895.85V317.598H1973.5V353ZM1938.84 92.9609H1920.3L1903.93 53.0498H1925.14L1929.65 73.2559L1933.99 53.0498H1955.2L1938.84 92.9609Z" fill="white"/>
</svg>
